<svg fill="#00FF3C" xmlns="http://www.w3.org/2000/svg" viewBox="0 0 26 26" width="30px" height="30px"><path d="M 24.3125 1 C 24.246094 1.003906 24.160156 1.035156 24.09375 1.0625 L 18.28125 3.75 C 17.96875 3.894531 17.683594 4.101563 17.4375 4.34375 L 15.71875 6.09375 L 19.90625 10.28125 L 21.65625 8.5625 C 21.902344 8.316406 22.105469 8.03125 22.25 7.71875 L 24.9375 1.90625 C 25.125 1.4375 24.769531 0.964844 24.3125 1 Z M 23.15625 2.34375 L 18.5 6.09375 L 17.8125 6.78125 L 17.125 6.09375 L 18.125 5.09375 Z M 12.625 6.78125 C 12.363281 6.78125 12.09375 6.878906 11.90625 7.0625 L 4.5 14.5 C 4.113281 14.886719 4.113281 15.519531 4.5 15.90625 L 3.4375 16.9375 L 2.96875 16.78125 C 2.613281 16.664063 2.234375 16.765625 1.96875 17.03125 L 1 18 L 8 25 L 8.96875 24.03125 C 9.234375 23.765625 9.335938 23.386719 9.21875 23.03125 L 9.0625 22.5625 L 10.09375 21.5 C 10.480469 21.886719 11.113281 21.886719 11.5 21.5 L 18.9375 14.09375 C 19.125 13.90625 19.21875 13.636719 19.21875 13.375 L 19.21875 11 L 15 6.78125 Z M 13.625 8.40625 C 13.75 8.40625 13.871094 8.433594 13.96875 8.53125 L 14.65625 9.25 C 14.847656 9.441406 14.847656 9.742188 14.65625 9.9375 L 7.3125 17.28125 L 5.90625 15.90625 L 13.25 8.53125 C 13.347656 8.433594 13.5 8.40625 13.625 8.40625 Z M 3.8125 18 L 5.21875 19.40625 L 4.5 20.09375 L 3.09375 18.6875 Z"/></svg>