<svg fill="#00FF3C" xmlns="http://www.w3.org/2000/svg" viewBox="0 0 24 24" width="30px" height="30px"><path d="M 12 0 C 9.089844 0 8.261719 1.382813 8.0625 3 L 3 3 C 3 3 2 6.5 2 8 C 2 8 3.101563 9.289063 6 10.1875 L 6 9 L 8 9 L 8 10.6875 C 9.101563 10.886719 10.5 11 12 11 C 13.5 11 14.898438 10.886719 16 10.6875 L 16 9 L 18 9 L 18 10.1875 C 20.898438 9.289063 22 8 22 8 C 22 6.5 21 3 21 3 L 15.9375 3 C 15.738281 1.382813 14.910156 0 12 0 Z M 12 1.59375 C 13.378906 1.59375 14.105469 2.0625 14.375 3 L 9.625 3 C 9.894531 2.0625 10.621094 1.59375 12 1.59375 Z M 3 10 C 2.601563 14.601563 4 20 4 20 C 4 20 1.601563 15.398438 2 11 C 1.5 11 0 12.3125 0 14.3125 C 0 16.210938 0.789063 20.011719 1.6875 21.3125 C 2.488281 22.511719 4.601563 24 12 24 C 19.398438 24 21.511719 22.511719 22.3125 21.3125 C 23.210938 20.113281 24 16.210938 24 14.3125 C 24 12.3125 22.5 11 22 11 C 22.398438 15.398438 20 20 20 20 C 20 20 21.398438 14.601563 21 10 C 21 10 19.898438 10.585938 18 11.1875 L 18 13 L 16 13 L 16 11.59375 C 14.800781 11.792969 13.5 12 12 12 C 10.5 12 9.199219 11.894531 8 11.59375 L 8 13 L 6 13 L 6 11.1875 C 4.101563 10.585938 3 10 3 10 Z"/></svg>