<?xml version="1.0"?>
<svg xmlns="http://www.w3.org/2000/svg" fill="#00FF3C" viewBox="0 0 30 30" width="30px" height="30px">    <path d="M 15 3 C 6.75 3 4 7.096 4 8 C 4 8.552 4.448 9 5 9 L 25 9 C 25.552 9 26 8.579 26 8 C 26 7.421 23.25 3 15 3 z M 5 11 C 3.895 11 3 11.895 3 13 C 3 14.105 3.895 15 5 15 L 25 15 C 26.105 15 27 14.105 27 13 C 27 11.895 26.105 11 25 11 L 5 11 z M 4 17 A 1.0001 1.0001 0 1 0 4 19 L 26 19 A 1.0001 1.0001 0 1 0 26 17 L 4 17 z M 5 21 C 4.448 21 4 21.448 4 22 L 4 23 C 4 24.105 4.895 25 6 25 L 24 25 C 25.105 25 26 24.105 26 23 L 26 22 C 26 21.448 25.552 21 25 21 L 5 21 z"/></svg>
