<svg fill="#00FF3C" xmlns="http://www.w3.org/2000/svg" viewBox="0 0 50 50" width="20px" height="20px"><path d="M 40 0 C 39.74425 0 39.488469 0.09746875 39.292969 0.29296875 L 36.292969 3.2929688 C 35.901969 3.6839688 35.901969 4.3160312 36.292969 4.7070312 L 38.023438 6.4375 L 34.851562 9.609375 L 40.486328 15.244141 L 43.658203 12.072266 L 45.292969 13.707031 C 45.487969 13.902031 45.744 14 46 14 C 46.256 14 46.512031 13.902031 46.707031 13.707031 L 49.707031 10.707031 C 50.098031 10.316031 50.098031 9.6839688 49.707031 9.2929688 L 40.707031 0.29296875 C 40.511531 0.09746875 40.25575 0 40 0 z M 31 9 C 30.74425 9 30.488469 9.0974687 30.292969 9.2929688 L 19 20.585938 L 22.707031 24.292969 C 23.098031 24.683969 23.098031 25.316031 22.707031 25.707031 C 22.512031 25.902031 22.256 26 22 26 C 21.744 26 21.487969 25.902031 21.292969 25.707031 L 17.585938 22 L 15 24.585938 L 17.707031 27.292969 C 18.098031 27.683969 18.098031 28.316031 17.707031 28.707031 C 17.512031 28.902031 17.256 29 17 29 C 16.744 29 16.487969 28.902031 16.292969 28.707031 L 13.585938 26 L 11 28.585938 L 14.707031 32.292969 C 15.098031 32.683969 15.098031 33.316031 14.707031 33.707031 C 14.512031 33.902031 14.256 34 14 34 C 13.744 34 13.487969 33.902031 13.292969 33.707031 L 9.5859375 30 L 6.2929688 33.292969 C 5.9019687 33.683969 5.9019687 34.316031 6.2929688 34.707031 L 15.292969 43.707031 C 15.487969 43.902031 15.744 44 16 44 C 16.256 44 16.512031 43.902031 16.707031 43.707031 L 40.707031 19.707031 C 41.098031 19.316031 41.098031 18.683969 40.707031 18.292969 L 31.707031 9.2929688 C 31.511531 9.0974688 31.25575 9 31 9 z M 31 17 C 31.512 17 32.024062 17.195438 32.414062 17.585938 C 33.195062 18.366937 33.195062 19.633063 32.414062 20.414062 L 30.414062 22.414062 C 30.024062 22.805062 29.512 23 29 23 C 28.488 23 27.975938 22.805063 27.585938 22.414062 C 26.804938 21.633063 26.804938 20.366937 27.585938 19.585938 L 29.585938 17.585938 C 29.975938 17.195438 30.488 17 31 17 z M 6.171875 37.414062 L 3.2929688 40.292969 C 2.9019687 40.683969 2.9019687 41.316031 3.2929688 41.707031 L 5.0859375 43.5 L 0.29296875 48.292969 A 1.0001 1.0001 0 1 0 1.7070312 49.707031 L 6.5 44.914062 L 8.2929688 46.707031 C 8.4879688 46.902031 8.744 47 9 47 C 9.256 47 9.5120312 46.902031 9.7070312 46.707031 L 12.585938 43.828125 L 6.171875 37.414062 z"/></svg>