<svg fill="#00FF3C" xmlns="http://www.w3.org/2000/svg" viewBox="0 0 80 80" width="30px" height="30px"><path d="M 39.984375 3.984375 C 39.433594 3.996094 38.992188 4.449219 39 5 L 39 10.027344 C 23.238281 10.542969 10.542969 23.238281 10.027344 39 L 5 39 C 4.640625 38.996094 4.304688 39.183594 4.121094 39.496094 C 3.941406 39.808594 3.941406 40.191406 4.121094 40.503906 C 4.304688 40.816406 4.640625 41.003906 5 41 L 10.027344 41 C 10.542969 56.761719 23.238281 69.457031 39 69.972656 L 39 75 C 38.996094 75.359375 39.183594 75.695313 39.496094 75.878906 C 39.808594 76.058594 40.191406 76.058594 40.503906 75.878906 C 40.816406 75.695313 41.003906 75.359375 41 75 L 41 69.972656 C 56.761719 69.457031 69.457031 56.761719 69.972656 41 L 75 41 C 75.035156 41 75.066406 41 75.097656 40.996094 C 75.632813 40.949219 76.035156 40.484375 76.007813 39.949219 C 75.980469 39.414063 75.535156 38.996094 75 39 L 69.972656 39 C 69.457031 23.238281 56.761719 10.542969 41 10.027344 L 41 5 C 41.003906 4.730469 40.898438 4.46875 40.707031 4.277344 C 40.515625 4.085938 40.253906 3.980469 39.984375 3.984375 Z M 39 12.027344 L 39 20 C 38.996094 20.359375 39.183594 20.695313 39.496094 20.878906 C 39.808594 21.058594 40.191406 21.058594 40.503906 20.878906 C 40.816406 20.695313 41.003906 20.359375 41 20 L 41 12.027344 C 55.679688 12.539063 67.460938 24.320313 67.972656 39 L 60 39 C 59.460938 38.996094 59.015625 39.425781 58.996094 39.964844 C 58.976563 40.503906 59.390625 40.960938 59.929688 41 C 59.953125 41 59.976563 41 60 41 L 67.972656 41 C 67.460938 55.679688 55.679688 67.460938 41 67.972656 L 41 60 C 41.003906 59.730469 40.898438 59.46875 40.707031 59.277344 C 40.515625 59.085938 40.253906 58.980469 39.984375 58.984375 C 39.882813 58.988281 39.785156 59.003906 39.6875 59.035156 C 39.65625 59.046875 39.625 59.058594 39.59375 59.074219 C 39.503906 59.113281 39.417969 59.167969 39.34375 59.234375 C 39.320313 59.253906 39.292969 59.277344 39.269531 59.300781 C 39.09375 59.488281 38.996094 59.742188 39 60 L 39 67.972656 C 24.320313 67.460938 12.539063 55.679688 12.027344 41 L 20 41 C 20.359375 41.003906 20.695313 40.816406 20.878906 40.503906 C 21.058594 40.191406 21.058594 39.808594 20.878906 39.496094 C 20.695313 39.183594 20.359375 38.996094 20 39 L 12.027344 39 C 12.539063 24.320313 24.320313 12.539063 39 12.027344 Z M 35.324219 15.460938 C 35.253906 15.460938 35.1875 15.46875 35.125 15.480469 C 34.582031 15.589844 34.230469 16.113281 34.339844 16.65625 C 34.445313 17.199219 34.972656 17.550781 35.515625 17.441406 C 36.054688 17.332031 36.40625 16.808594 36.296875 16.265625 C 36.207031 15.800781 35.796875 15.464844 35.324219 15.460938 Z M 44.707031 15.460938 C 44.222656 15.449219 43.796875 15.789063 43.703125 16.265625 C 43.59375 16.808594 43.945313 17.332031 44.488281 17.441406 C 45.03125 17.550781 45.554688 17.199219 45.664063 16.65625 C 45.714844 16.394531 45.664063 16.125 45.515625 15.90625 C 45.367188 15.683594 45.140625 15.53125 44.878906 15.480469 C 44.824219 15.46875 44.765625 15.460938 44.707031 15.460938 Z M 30.824219 16.828125 C 30.6875 16.824219 30.554688 16.851563 30.433594 16.902344 C 29.921875 17.113281 29.679688 17.699219 29.890625 18.207031 C 30.101563 18.71875 30.6875 18.960938 31.199219 18.75 C 31.707031 18.539063 31.949219 17.953125 31.738281 17.441406 C 31.585938 17.074219 31.222656 16.828125 30.824219 16.828125 Z M 49.203125 16.828125 C 48.792969 16.816406 48.417969 17.0625 48.261719 17.441406 C 48.046875 17.953125 48.289063 18.539063 48.800781 18.75 C 49.3125 18.960938 49.894531 18.71875 50.109375 18.207031 C 50.320313 17.699219 50.078125 17.113281 49.566406 16.902344 C 49.453125 16.855469 49.328125 16.828125 49.203125 16.828125 Z M 53.351563 19.042969 C 53.011719 19.035156 52.691406 19.203125 52.5 19.488281 C 52.195313 19.949219 52.320313 20.566406 52.777344 20.875 C 53.238281 21.183594 53.855469 21.058594 54.164063 20.597656 C 54.472656 20.140625 54.347656 19.519531 53.890625 19.214844 C 53.730469 19.105469 53.542969 19.046875 53.351563 19.042969 Z M 26.675781 19.046875 C 26.476563 19.042969 26.277344 19.101563 26.109375 19.214844 C 25.652344 19.519531 25.527344 20.140625 25.832031 20.597656 C 25.980469 20.820313 26.210938 20.972656 26.472656 21.023438 C 26.730469 21.078125 27.003906 21.023438 27.222656 20.875 C 27.679688 20.566406 27.804688 19.949219 27.5 19.488281 C 27.316406 19.214844 27.007813 19.046875 26.675781 19.046875 Z M 23.042969 22.03125 C 22.773438 22.027344 22.511719 22.132813 22.324219 22.324219 C 21.933594 22.710938 21.933594 23.347656 22.324219 23.734375 C 22.710938 24.125 23.347656 24.125 23.734375 23.734375 C 24.125 23.347656 24.125 22.710938 23.734375 22.324219 C 23.550781 22.136719 23.304688 22.03125 23.042969 22.03125 Z M 56.984375 22.03125 C 56.714844 22.027344 56.453125 22.132813 56.265625 22.324219 C 55.875 22.710938 55.875 23.347656 56.265625 23.734375 C 56.652344 24.125 57.289063 24.125 57.675781 23.734375 C 58.066406 23.347656 58.066406 22.710938 57.675781 22.324219 C 57.492188 22.136719 57.246094 22.03125 56.984375 22.03125 Z M 20.0625 25.667969 C 19.722656 25.660156 19.402344 25.828125 19.214844 26.109375 C 18.90625 26.570313 19.03125 27.191406 19.488281 27.5 C 19.949219 27.804688 20.570313 27.679688 20.875 27.222656 C 21.183594 26.761719 21.058594 26.140625 20.597656 25.835938 C 20.441406 25.730469 20.253906 25.671875 20.0625 25.667969 Z M 59.96875 25.667969 C 59.765625 25.664063 59.566406 25.722656 59.402344 25.832031 C 58.941406 26.140625 58.816406 26.761719 59.125 27.21875 C 59.433594 27.679688 60.050781 27.804688 60.511719 27.496094 C 60.96875 27.1875 61.09375 26.570313 60.785156 26.109375 C 60.605469 25.835938 60.296875 25.667969 59.96875 25.667969 Z M 17.847656 29.8125 C 17.4375 29.804688 17.0625 30.050781 16.90625 30.433594 C 16.691406 30.941406 16.933594 31.527344 17.445313 31.738281 C 17.957031 31.949219 18.539063 31.707031 18.75 31.199219 C 18.964844 30.6875 18.722656 30.101563 18.210938 29.890625 C 18.097656 29.84375 17.972656 29.816406 17.847656 29.8125 Z M 62.179688 29.8125 C 62.046875 29.8125 61.914063 29.839844 61.792969 29.890625 C 61.28125 30.101563 61.039063 30.6875 61.25 31.199219 C 61.460938 31.707031 62.046875 31.949219 62.558594 31.738281 C 63.066406 31.527344 63.308594 30.941406 63.097656 30.433594 C 62.945313 30.058594 62.582031 29.816406 62.179688 29.8125 Z M 16.484375 34.316406 C 16 34.304688 15.574219 34.644531 15.480469 35.125 C 15.371094 35.664063 15.722656 36.191406 16.265625 36.296875 C 16.808594 36.40625 17.332031 36.054688 17.441406 35.515625 C 17.550781 34.972656 17.199219 34.445313 16.65625 34.339844 C 16.601563 34.328125 16.542969 34.320313 16.484375 34.316406 Z M 63.546875 34.316406 C 63.476563 34.316406 63.410156 34.324219 63.34375 34.339844 C 63.085938 34.390625 62.855469 34.542969 62.707031 34.761719 C 62.5625 34.984375 62.507813 35.253906 62.558594 35.515625 C 62.609375 35.773438 62.765625 36.003906 62.984375 36.152344 C 63.207031 36.296875 63.476563 36.351563 63.734375 36.296875 C 64.277344 36.191406 64.628906 35.664063 64.519531 35.125 C 64.429688 34.65625 64.019531 34.320313 63.546875 34.316406 Z M 16.464844 43.683594 C 16.398438 43.679688 16.332031 43.6875 16.265625 43.703125 C 15.722656 43.808594 15.371094 44.335938 15.480469 44.875 C 15.53125 45.136719 15.683594 45.367188 15.90625 45.515625 C 16.125 45.660156 16.394531 45.714844 16.65625 45.664063 C 17.199219 45.554688 17.550781 45.03125 17.441406 44.488281 C 17.347656 44.019531 16.941406 43.683594 16.464844 43.683594 Z M 63.566406 43.683594 C 63.078125 43.667969 62.652344 44.007813 62.558594 44.484375 C 62.507813 44.746094 62.5625 45.015625 62.707031 45.238281 C 62.855469 45.457031 63.085938 45.609375 63.34375 45.660156 C 63.886719 45.769531 64.414063 45.417969 64.519531 44.875 C 64.574219 44.617188 64.519531 44.347656 64.371094 44.125 C 64.222656 43.90625 63.996094 43.753906 63.734375 43.703125 C 63.679688 43.691406 63.621094 43.683594 63.566406 43.683594 Z M 17.835938 48.183594 C 17.703125 48.183594 17.570313 48.207031 17.445313 48.261719 C 16.933594 48.472656 16.691406 49.054688 16.90625 49.566406 C 17.117188 50.078125 17.699219 50.320313 18.210938 50.109375 C 18.71875 49.894531 18.960938 49.3125 18.75 48.800781 C 18.597656 48.429688 18.238281 48.1875 17.835938 48.183594 Z M 62.195313 48.183594 C 61.78125 48.175781 61.40625 48.417969 61.25 48.800781 C 61.039063 49.3125 61.28125 49.894531 61.792969 50.109375 C 62.300781 50.320313 62.886719 50.078125 63.097656 49.566406 C 63.308594 49.054688 63.066406 48.472656 62.558594 48.261719 C 62.441406 48.210938 62.320313 48.1875 62.195313 48.183594 Z M 20.058594 52.332031 C 19.855469 52.332031 19.65625 52.390625 19.488281 52.5 C 19.03125 52.808594 18.90625 53.429688 19.214844 53.890625 C 19.523438 54.347656 20.140625 54.472656 20.601563 54.164063 C 21.058594 53.855469 21.183594 53.238281 20.875 52.777344 C 20.695313 52.503906 20.386719 52.335938 20.058594 52.332031 Z M 59.972656 52.332031 C 59.632813 52.324219 59.3125 52.492188 59.125 52.777344 C 58.816406 53.234375 58.941406 53.855469 59.402344 54.160156 C 59.859375 54.46875 60.480469 54.34375 60.785156 53.886719 C 61.09375 53.425781 60.96875 52.808594 60.511719 52.5 C 60.351563 52.394531 60.167969 52.335938 59.972656 52.332031 Z M 23.042969 55.96875 C 22.773438 55.96875 22.511719 56.074219 22.324219 56.265625 C 21.933594 56.652344 21.933594 57.289063 22.324219 57.675781 C 22.710938 58.066406 23.347656 58.066406 23.734375 57.675781 C 24.125 57.289063 24.125 56.652344 23.734375 56.265625 C 23.550781 56.078125 23.304688 55.972656 23.042969 55.96875 Z M 56.984375 55.96875 C 56.714844 55.964844 56.453125 56.070313 56.261719 56.265625 C 55.871094 56.652344 55.871094 57.289063 56.261719 57.675781 C 56.652344 58.066406 57.285156 58.066406 57.675781 57.675781 C 58.066406 57.289063 58.066406 56.652344 57.675781 56.265625 C 57.492188 56.078125 57.246094 55.976563 56.984375 55.96875 Z M 26.6875 58.953125 C 26.34375 58.945313 26.023438 59.113281 25.835938 59.398438 C 25.53125 59.859375 25.652344 60.480469 26.113281 60.785156 C 26.574219 61.09375 27.191406 60.96875 27.5 60.511719 C 27.804688 60.050781 27.683594 59.429688 27.222656 59.125 C 27.0625 59.015625 26.878906 58.957031 26.6875 58.953125 Z M 53.34375 58.953125 C 53.144531 58.953125 52.945313 59.011719 52.78125 59.125 C 52.320313 59.429688 52.195313 60.050781 52.503906 60.511719 C 52.8125 60.96875 53.429688 61.09375 53.890625 60.785156 C 54.347656 60.476563 54.472656 59.859375 54.167969 59.398438 C 53.984375 59.125 53.675781 58.957031 53.34375 58.953125 Z M 30.839844 61.171875 C 30.425781 61.164063 30.050781 61.40625 29.890625 61.789063 C 29.679688 62.300781 29.921875 62.882813 30.433594 63.09375 C 30.945313 63.308594 31.527344 63.066406 31.738281 62.554688 C 31.953125 62.042969 31.710938 61.460938 31.199219 61.25 C 31.085938 61.199219 30.960938 61.175781 30.839844 61.171875 Z M 49.191406 61.171875 C 49.058594 61.171875 48.925781 61.195313 48.800781 61.25 C 48.292969 61.460938 48.050781 62.042969 48.261719 62.554688 C 48.472656 63.066406 49.058594 63.308594 49.566406 63.09375 C 50.078125 62.882813 50.320313 62.300781 50.109375 61.789063 C 49.957031 61.417969 49.59375 61.175781 49.191406 61.171875 Z M 35.34375 62.539063 C 34.855469 62.527344 34.433594 62.867188 34.339844 63.34375 C 34.230469 63.886719 34.582031 64.410156 35.125 64.519531 C 35.382813 64.570313 35.652344 64.515625 35.875 64.371094 C 36.09375 64.222656 36.246094 63.992188 36.296875 63.734375 C 36.40625 63.191406 36.054688 62.664063 35.515625 62.558594 C 35.457031 62.546875 35.402344 62.539063 35.34375 62.539063 Z M 44.6875 62.539063 C 44.621094 62.539063 44.554688 62.546875 44.488281 62.558594 C 43.945313 62.667969 43.59375 63.191406 43.703125 63.734375 C 43.8125 64.277344 44.335938 64.628906 44.878906 64.519531 C 45.421875 64.410156 45.773438 63.886719 45.664063 63.34375 C 45.570313 62.878906 45.164063 62.542969 44.6875 62.539063 Z"/></svg>