<?xml version="1.0"?>
<svg xmlns="http://www.w3.org/2000/svg" fill="#00FF3C" viewBox="0 0 50 50" width="30px" height="30px">    <path d="M 21 2 L 21 5 L 23 5 L 23 6.0976562 C 12.355663 7.1082736 4 16.095631 4 27 C 4 38.579 13.421 48 25 48 C 36.579 48 46 38.579 46 27 C 46 16.095631 37.644337 7.1082736 27 6.0976562 L 27 5 L 29 5 L 29 2 L 21 2 z M 40.236328 5.1464844 L 38.230469 7.1523438 L 42.845703 11.767578 L 44.851562 9.7617188 L 40.236328 5.1464844 z M 15 16 C 15.25575 16 15.511531 16.097469 15.707031 16.292969 L 24.488281 25.074219 C 24.653281 25.031219 24.822 25 25 25 C 26.105 25 27 25.895 27 27 C 27 27.178 26.968781 27.346719 26.925781 27.511719 L 28.707031 29.292969 C 29.098031 29.683969 29.098031 30.316031 28.707031 30.707031 C 28.512031 30.902031 28.256 31 28 31 C 27.744 31 27.487969 30.902031 27.292969 30.707031 L 25.511719 28.925781 C 25.346719 28.968781 25.178 29 25 29 C 23.895 29 23 28.105 23 27 C 23 26.822 23.031219 26.653281 23.074219 26.488281 L 14.292969 17.707031 C 13.901969 17.316031 13.901969 16.683969 14.292969 16.292969 C 14.488469 16.097469 14.74425 16 15 16 z"/></svg>
