<svg fill="#00FF3C" xmlns="http://www.w3.org/2000/svg" viewBox="0 0 50 50" width="26px" height="26px"><path d="M 32 14.230469 L 32 12 L 33 12 C 34.652344 12 36 10.652344 36 9 C 36 7.347656 34.652344 6 33 6 L 32 6 L 32 1 C 32 0.449219 31.554688 0 31 0 L 19 0 C 18.449219 0 18 0.449219 18 1 L 18 6 L 17 6 C 16.449219 6 16 6.449219 16 7 C 16 7.550781 16.449219 8 17 8 L 33 8 C 33.550781 8 34 8.449219 34 9 C 34 9.550781 33.550781 10 33 10 L 18 10 C 17.449219 10 17 10.449219 17 11 C 17 11.550781 17.449219 12 18 12 L 18 14.242188 C 15.511719 15.039063 8 18.175781 8 27 C 8 36.953125 13.855469 48.9375 14.101563 49.441406 C 14.269531 49.78125 14.617188 49.996094 15 49.996094 L 35 50 C 35.378906 50 35.726563 49.785156 35.894531 49.445313 C 36.144531 48.949219 42 37.121094 42 27 C 42 18.042969 34.503906 15 32 14.230469 Z"/></svg>